<?xml version="1.0" standalone="no"?><!DOCTYPE svg PUBLIC "-//W3C//DTD SVG 1.1//EN" "http://www.w3.org/Graphics/SVG/1.1/DTD/svg11.dtd"><svg t="1587784280078" class="icon" viewBox="0 0 1024 1024" version="1.1" xmlns="http://www.w3.org/2000/svg" p-id="2578" xmlns:xlink="http://www.w3.org/1999/xlink" width="200" height="200"><defs><style type="text/css"></style></defs><path d="M716.8 785.08032h204.8v68.25984H716.8zM605.32736 747.89888l-128.256-42.76224c-26.90048 26.33728-63.13984 43.1616-101.60128 43.1616-38.47168 0-74.67008-16.82432-101.60128-43.1616l-128.29696 42.76224C121.8048 755.84512 102.4 782.7968 102.4 807.84384V921.6h546.12992V807.84384c0-25.04704-19.456-51.99872-43.20256-59.94496zM536.53504 234.63936l18.37056 110.05952c7.2704 43.64288 49.39776 79.33952 93.63456 79.33952s86.3744-35.69664 93.6448-79.33952l18.36032-110.05952C772.59776 161.88416 722.2272 102.4 648.52992 102.4s-124.09856 59.48416-111.99488 132.23936z" p-id="2579" fill="#1bc8bc"></path><path d="M921.6 534.784c0-25.0368-19.46624-51.99872-43.20256-59.94496l-128.26624-42.76224c-26.90048 26.3168-63.1296 43.1616-101.60128 43.1616-38.46144 0-74.65984-16.8448-101.60128-43.1616l-62.80192 20.92032c-13.62944-45.55776-54.76352-77.5168-108.65664-77.5168-73.69728 0-124.09856 59.46368-112.00512 132.21888l18.36032 110.08c7.2704 43.6224 49.39776 79.31904 93.6448 79.31904 33.19808 0 65.19808-20.10112 82.19648-48.55808H921.6V534.784z" p-id="2580" fill="#1bc8bc"></path></svg>