<?xml version="1.0" standalone="no"?><!DOCTYPE svg PUBLIC "-//W3C//DTD SVG 1.1//EN" "http://www.w3.org/Graphics/SVG/1.1/DTD/svg11.dtd"><svg t="1587784949612" class="icon" viewBox="0 0 1087 1024" version="1.1" xmlns="http://www.w3.org/2000/svg" p-id="9699" xmlns:xlink="http://www.w3.org/1999/xlink" width="212.3046875" height="200"><defs><style type="text/css"></style></defs><path d="M557.901679 443.193718c-15.806429 7.935211-11.902817 7.935211-27.709246 0L35.841559 237.774131c-3.903612 0-7.871218-7.935211-7.871218-11.838823 0-3.967606 0-11.902817 3.967606-15.80643l482.51205-205.419586c11.838824-3.967606 23.677647-7.935211 43.515676 0l490.447261 201.451981a19.070105 19.070105 0 0 1 0 27.645252L557.901679 443.193718z m11.838824 557.128635c0 11.838824 11.902817 23.677647 23.74164 23.677647l470.673227-244.967656c19.838029-11.838824 23.741641-31.612858 23.741641-59.258112V304.90346c0-7.871218-3.967606-11.838824-7.935212-15.742435a30.013017 30.013017 0 0 0-15.806429-7.935212L593.482143 478.774182c-23.677647 7.871218-23.677647 19.774035-23.677647 31.612858v489.935313zM490.644363 478.774182L19.971136 281.225813c-7.935211 0-11.838824 3.967606-15.806429 7.935212 0 3.903612-3.967606 11.838824-3.967606 15.742435v474.192877c0 3.839618-3.967606 11.77483 23.677647 23.677647L494.675962 1024c11.838824 0 23.677647-11.838824 23.677647-23.677647V514.354646c-3.903612-11.902817-3.903612-23.677647-27.645253-35.580464zM340.323301 597.290404C281.001196 569.645152 221.679091 545.967504 158.389381 518.258258c-7.871218-3.903612-15.806429-7.871218-15.80643-15.806429v-51.3229c0-7.935211 3.967606-15.806429 11.902817-11.838823l185.837533 82.935758c15.870423 7.935211 11.902817 7.935211 11.902817 39.54807v27.645252c0 3.903612-3.967606 11.838824-11.902817 7.871218z" p-id="9700" fill="#36a3f7"></path></svg>