<?xml version="1.0" standalone="no"?><!DOCTYPE svg PUBLIC "-//W3C//DTD SVG 1.1//EN" "http://www.w3.org/Graphics/SVG/1.1/DTD/svg11.dtd"><svg t="1587784543979" class="icon" viewBox="0 0 1024 1024" version="1.1" xmlns="http://www.w3.org/2000/svg" p-id="8324" xmlns:xlink="http://www.w3.org/1999/xlink" width="200" height="200"><defs><style type="text/css"></style></defs><path d="M230.4 750.4h71.2v216h-71.2z" fill="#FFC10D" p-id="8325"></path><path d="M525.6 643.2h71.2v322.4h-71.2z" fill="#56ACE0" p-id="8326" data-spm-anchor-id="a313x.7781069.0.i13" class="selected"></path><path d="M820 502.4h71.2v463.2h-71.2z" fill="#FFC10D" p-id="8327"></path><path d="M258.4 359.2c-24 0-43.2-19.2-43.2-43.2 0-16-12.8-28.8-28.8-28.8s-28.8 12.8-28.8 28.8c0 45.6 30.4 84 72 96v19.2c0 16 12.8 28.8 28.8 28.8s28.8-12.8 28.8-28.8v-19.2c41.6-12 72-50.4 72-96 0-55.2-44.8-100-100-100 0.8 0 0 0 0 0-22.4-2.4-43.2-20-43.2-43.2 0-24 19.2-43.2 43.2-43.2 24 0 43.2 19.2 43.2 43.2 0 16 12.8 28.8 28.8 28.8s28.8-12.8 28.8-28.8c0-45.6-30.4-84-72-96V56.8c0-16-12.8-28.8-28.8-28.8s-28.8 12.8-28.8 28.8v19.2c-41.6 12.8-72 51.2-72 96 0 55.2 44.8 100 100 100-0.8 0 0 0 0 0 22.4 2.4 43.2 20 43.2 43.2 0 24.8-19.2 44-43.2 44z" fill="#194F82" p-id="8328"></path><path d="M994.4 966.4h-46.4V474.4c0-16-12.8-28.8-28.8-28.8h-128c-16 0-28.8 12.8-28.8 28.8v492H652.8V616c0-16-12.8-28.8-28.8-28.8H496c-16 0-28.8 12.8-28.8 28.8v350.4H358.4V722.4c0-16-12.8-28.8-28.8-28.8h-128c-16 0-28.8 12.8-28.8 28.8v244H56.8V719.2l172.8-156.8h144c9.6 0 19.2-5.6 24.8-13.6l80-132.8 148.8 20c10.4 1.6 20-3.2 26.4-11.2l160.8-214.4 190.4-70.4c14.4-5.6 22.4-21.6 16.8-36-5.6-14.4-21.6-22.4-36-16.8L787.2 160c-5.6 1.6-9.6 5.6-12.8 9.6l-156 208-150.4-20.8c-11.2-1.6-22.4 4-28 13.6L358.4 505.6H219.2c-7.2 0-13.6 2.4-19.2 7.2L57.6 642.4V28.8c0-16-12.8-28.8-28.8-28.8S0 12.8 0 28.8v966.4c0 16 12.8 28.8 28.8 28.8h966.4c16 0 28.8-12.8 28.8-28.8-1.6-16-13.6-28.8-29.6-28.8z m-692.8 0h-71.2v-216h71.2v216z m294.4 0h-71.2V644h71.2v322.4z m295.2 0h-71.2V503.2h71.2v463.2z" fill="#194F82" p-id="8329" data-spm-anchor-id="a313x.7781069.0.i12" class="selected"></path></svg>